<?xml version="1.0" encoding="UTF-8" standalone="no"?><!DOCTYPE svg PUBLIC "-//W3C//DTD SVG 1.1//EN" "http://www.w3.org/Graphics/SVG/1.1/DTD/svg11.dtd"><svg width="100%" height="100%" viewBox="0 0 417 417" version="1.1" xmlns="http://www.w3.org/2000/svg" xmlns:xlink="http://www.w3.org/1999/xlink" xml:space="preserve" xmlns:serif="http://www.serif.com/" style="fill-rule:evenodd;clip-rule:evenodd;stroke-linejoin:round;stroke-miterlimit:2;"><g><g><path d="M240.564,365.303c2.635,-0.567 5.255,-1.2 7.858,-1.898c85.676,-22.957 137.452,-111.728 114.698,-196.65c-21.974,-82.005 -106.07,-132.895 -189.797,-114.854c-2.856,0.765 -4.581,3.723 -3.823,6.553l8.294,30.953c0.758,2.83 3.732,4.529 6.587,3.764c61.61,-13.752 123.818,23.576 140.012,84.016c16.683,62.261 -21.277,127.344 -84.09,144.174c-62.813,16.831 -128.228,-20.552 -144.911,-82.813c-5.327,-19.881 -5.292,-40.829 0.103,-60.739l15.653,8.247c1.139,0.59 2.535,0.435 3.521,-0.391c1.105,-0.787 1.693,-2.114 1.53,-3.451l-8.273,-68.557c-0.09,-1.057 -0.721,-1.996 -1.67,-2.483c-0.932,-0.52 -2.078,-0.508 -3.004,0.031l-62.127,31.908c-1.179,0.635 -1.955,1.824 -2.056,3.149c-0.106,1.284 0.551,2.514 1.679,3.144l15.847,8.139c-10.126,29.862 -11.187,61.993 -3.047,92.369c21.699,80.981 104.042,131.787 187.016,115.389Z" style="fill-rule:nonzero;" fill="#e8eaed"/></g></g></svg>