<?xml version="1.0" encoding="UTF-8" standalone="no" ?>
<!DOCTYPE svg PUBLIC "-//W3C//DTD SVG 1.1//EN" "http://www.w3.org/Graphics/SVG/1.1/DTD/svg11.dtd">
<svg xmlns="http://www.w3.org/2000/svg" xmlns:xlink="http://www.w3.org/1999/xlink" version="1.1" width="1080" height="1080" viewBox="72.5 72.5 1080 1080" xml:space="preserve">
<desc>Created with Fabric.js 5.2.4</desc>
<defs>
</defs>
<rect x="0" y="0" width="100%" height="100%" fill="transparent"></rect>
<g transform="matrix(0 0 0 0 0 0)" id="cf3958ed-a215-4622-9e94-61e5f0b14ab0"  >
</g>
<g transform="matrix(1 0 0 1 540 540)" id="eafe6acd-430e-4588-849e-420610b2fdab"  >
<rect style="stroke: none; stroke-width: 1; stroke-dasharray: none; stroke-linecap: butt; stroke-dashoffset: 0; stroke-linejoin: miter; stroke-miterlimit: 4; fill: rgb(255,255,255); fill-rule: nonzero; opacity: 1; visibility: hidden;" vector-effect="non-scaling-stroke"  x="-540" y="-540" rx="0" ry="0" width="1080" height="1080" />
</g>
<g transform="matrix(22.27 0 0 22.27 540 540)"  >
<path style="stroke: none; stroke-width: 1; stroke-dasharray: none; stroke-linecap: butt; stroke-dashoffset: 0; stroke-linejoin: miter; stroke-miterlimit: 4; fill: rgb(0,128,90); fill-rule: nonzero; opacity: 1;" vector-effect="non-scaling-stroke"  transform=" translate(-20.85, -20.08)" d="M 27.009 4.7 C 30.214937172907597 5.859747789644879 33.031047243536385 7.895953361136686 35.13699999999999 10.576999999999995 C 34.24573878084186 10.7886774410555 33.413090018398414 11.196972587185957 32.7 11.772000000000002 C 31.05690061445759 9.828756793063995 28.962429191802304 8.317990520984774 26.59999999999999 7.371999999999995 C 26.879172833950406 6.6592093066228575 27.02263691840155 5.900511536133008 27.023 5.134999999999998 C 27.023 4.987 27.016 4.842 27.006 4.697 M 7.578 29.9 C 6.245261958343114 27.722679198824718 5.473224308863307 25.248860295284608 5.331 22.7 C 5.2620000000000005 22.7 5.1930000000000005 22.705 5.123 22.705 C 4.277761647851819 22.704758053057525 3.441664248564793 22.530117187489836 2.667 22.191999999999997 C 2.7344321189405543 25.64829022683149 3.791163550654874 29.012825934703514 5.7120000000000015 31.886999999999997 C 6.178655995312758 31.0942617805963 6.816104811071976 30.41547785942076 7.578000000000001 29.9 M 36.553000000000004 22.743 C 36.483000000000004 22.743 36.415000000000006 22.743 36.345000000000006 22.737 C 36.19800151536624 25.274997563767815 35.426864962076344 27.737482174251234 34.1 29.906 C 34.86313840790758 30.415338465402108 35.50357112326416 31.087878207555228 35.975 31.875 C 37.88362524414666 29.015811975324233 38.93780291859336 25.671859102120465 39.01400000000001 22.235 C 38.23869273217889 22.571521707309394 37.4021885389785 22.744133683684076 36.557 22.742 M 24.78 36.833 C 22.20140228456838 37.50566659520304 19.49362090278664 37.50773202722576 16.914 36.839 C 16.641502863751906 37.71805113851199 16.175407851775038 38.52483290044555 15.55 39.2 C 18.999124729830125 40.243577064051294 22.679875270169873 40.243577064051294 26.128999999999998 39.2 C 25.508552816326127 38.522543746677606 25.047617316323134 37.71479613955597 24.78 36.836000000000006 M 9.005 11.742 C 10.65237259010434 9.804880811552856 12.749124401792866 8.300726613582096 15.112000000000002 7.361000000000001 C 14.836676034901462 6.647463301311207 14.696950195003504 5.8888062531274 14.7 5.124000000000002 C 14.7 4.976 14.707999999999998 4.83 14.718 4.686 C 11.50731243451521 5.8366707074738375 8.6841853827093 7.865663345590603 6.569999999999997 10.542000000000003 C 7.4609171708561774 10.755634241534459 8.292848295599036 11.165620832783505 9.005 11.741999999999997 M 20.867 0 C 18.7916159031261 -0.0028299376268620642 16.91890132739012 1.2448529634014216 16.12216429362774 3.1612133828255935 C 15.325427259865357 5.077573802249765 15.761585785405035 7.285182971530279 17.227244892899538 8.754560574028183 C 18.69290400039404 10.223938176526087 20.8994009172076 10.665689078941236 22.817774006383246 9.873810395789105 C 24.73614709555889 9.081931712636974 25.98857119158599 7.212384605077755 25.991 5.136999999999998 C 25.992857683028685 3.7762659779082144 25.454020754980835 2.470540765081119 24.493055399312095 1.5071373630377316 C 23.532090043643354 0.5437339609943441 22.227734360930274 0.0015902352033885236 20.867 8.881784197001252e-16 M 5.1370000000000005 11.4 C 3.0616159031260994 11.397170062373139 1.1889013273901208 12.644852963401423 0.3921642936277383 14.561213382825594 C -0.40457274013464417 16.477573802249765 0.03158578540503498 18.68518297153028 1.4972448928995372 20.15456057402818 C 2.96290400039404 21.62393817652609 5.169400917207598 22.065689078941237 7.0877740063832455 21.273810395789106 C 9.006147095558893 20.481931712636975 10.25857119158599 18.612384605077757 10.261 16.537 C 10.262857683028683 15.176265977908214 9.724020754980835 13.870540765081119 8.763055399312094 12.90713736303773 C 7.802090043643355 11.943733960994344 6.4977343609302745 11.401590235203386 5.137000000000001 11.399999999999999 M 10.815 29.88 C 8.739615903126099 29.87717006237314 6.866901327390118 31.124852963401423 6.070164293627737 33.041213382825596 C 5.273427259865357 34.95757380224977 5.709585785405038 37.165182971530285 7.175244892899542 38.634560574028185 C 8.640904000394046 40.103938176526086 10.847400917207604 40.54568907894124 12.765774006383252 39.7538103957891 C 14.684147095558897 38.96193171263697 15.936571191585994 37.09238460507775 15.939 35.016999999999996 C 15.941763725868377 32.18384412804138 13.648153779766641 29.88441510908654 10.814999999999998 29.879999999999995 M 36.568 11.446 C 34.492615903126094 11.44317006237314 32.61990132739012 12.690852963401424 31.823164293627737 14.607213382825595 C 31.026427259865358 16.523573802249768 31.462585785405036 18.73118297153028 32.92824489289954 20.20056057402818 C 34.393904000394045 21.669938176526088 36.6004009172076 22.11168907894124 38.518774006383246 21.319810395789105 C 40.43714709555889 20.527931712636978 41.68957119158599 18.658384605077757 41.692 16.583 C 41.69385768302868 15.222265977908213 41.15502075498083 13.916540765081116 40.19405539931209 12.953137363037728 C 39.23309004364335 11.98973396099434 37.92873436093027 11.447590235203386 36.568 11.445999999999998 M 30.686 29.906 C 28.6106159031261 29.90317006237314 26.73790132739012 31.150852963401423 25.94116429362774 33.06721338282559 C 25.14442725986536 34.983573802249765 25.580585785405038 37.19118297153028 27.04624489289954 38.66056057402818 C 28.511904000394043 40.12993817652608 30.7184009172076 40.57168907894123 32.63677400638325 39.779810395789106 C 34.555147095558894 38.98793171263698 35.80757119158599 37.11838460507776 35.81 35.043 C 35.81331588972367 32.20961617073503 33.51938313544822 29.90986352461619 30.686000000000003 29.906" stroke-linecap="round" />
</g>
</svg>