<svg xmlns="http://www.w3.org/2000/svg" height="24px" viewBox="0 -960 960 960" width="24px">
  <!-- Outer thick outline for the whole grid, filled with green -->
  <path d="M200-120q-33 0-56.5-23.5T120-200v-560q0-33 23.5-56.5T200-840h560q33 0 56.5 23.5T840-760v560q0 33-23.5 56.5T760-120H200Zm0-80h560v-560H200v560Z" fill="#000000" stroke="#000000" stroke-width="10"/>

  <!-- Top-left square -->
  <path d="M280-280h160v-160H280v160Z" fill="#000000" stroke="#000000" stroke-width="2"/> <!-- Red fill, orange outline -->
  <!-- Top-right square -->
  <path d="M520-280h160v-160H520v160Z" fill="#000000" stroke="#000000" stroke-width="2"/> <!-- Green fill, blue outline -->
  <!-- Bottom-left square -->
  <path d="M280-520h160v-160H280v160Z" fill="#000000" stroke="#000000" stroke-width="2"/> <!-- Blue fill, pink outline -->
  <!-- Bottom-right square -->
  <path d="M520-520h160v-160H520v160Z" fill="#000000" stroke="#000000" stroke-width="2"/> <!-- Yellow fill, purple outline -->
</svg>