<?xml version="1.0" encoding="UTF-8"?>
<svg width="1200pt" height="1200pt" version="1.1" viewBox="0 0 1200 1200" xmlns="http://www.w3.org/2000/svg">
 <path d="m1032 216h-172.13l-177.94-177.94c-9-9-21.188-14.062-33.938-14.062h-192c-79.5 0.09375-143.9 64.5-144 144v240h-144c-79.5 0.09375-143.9 64.5-144 144v480c0.09375 79.5 64.5 143.9 144 144h576c79.5-0.09375 143.9-64.5 144-144v-240h144c79.5-0.09375 143.9-64.5 144-144v-288c-0.09375-79.5-64.5-143.9-144-144zm-576-96h172.13l96 96h-268.13c-16.406 0.14062-32.625 3.1406-48 8.8594v-56.859c0-26.531 21.469-48 48-48zm-336 432c0-26.531 21.469-48 48-48h172.13l96 96h-268.13c-16.359 0-32.578 2.7656-48 8.25zm672 480c0 12.75-5.0625 24.938-14.062 33.938s-21.188 14.062-33.938 14.062h-576c-26.531 0-48-21.469-48-48v-288c0-26.531 21.469-48 48-48h576c12.75 0 24.938 5.0625 33.938 14.062s14.062 21.188 14.062 33.938zm288-384c0 12.75-5.0625 24.938-14.062 33.938s-21.188 14.062-33.938 14.062h-152.86c-20.203-57.375-74.297-95.812-135.14-96h-172.13l-163.87-163.87v-76.125c0-26.531 21.469-48 48-48h576c12.75 0 24.938 5.0625 33.938 14.062s14.062 21.188 14.062 33.938z" fill="#e8eaed"/>
</svg>
