<svg id="TBU_Logo" xmlns="http://www.w3.org/2000/svg" width="40.166" height="40.166" viewBox="0 0 40.166 40.166">
  <path id="Pfad_86" data-name="Pfad 86" d="M27.009,4.7a18.215,18.215,0,0,1,8.128,5.877A6.144,6.144,0,0,0,32.7,11.772a15.566,15.566,0,0,0-6.1-4.4,6.142,6.142,0,0,0,.423-2.237c0-.148-.007-.293-.017-.438M7.578,29.9a15.439,15.439,0,0,1-2.247-7.2c-.069,0-.138.005-.208.005a6.144,6.144,0,0,1-2.456-.513,18.083,18.083,0,0,0,3.045,9.695A6.191,6.191,0,0,1,7.578,29.9m28.975-7.157c-.07,0-.138,0-.208-.006A15.447,15.447,0,0,1,34.1,29.906a6.193,6.193,0,0,1,1.875,1.969,18.085,18.085,0,0,0,3.039-9.64,6.132,6.132,0,0,1-2.457.507M24.78,36.833a15.627,15.627,0,0,1-7.866.006A6.157,6.157,0,0,1,15.55,39.2a18.265,18.265,0,0,0,10.579,0,6.155,6.155,0,0,1-1.349-2.364M9.005,11.742a15.57,15.57,0,0,1,6.107-4.381A6.146,6.146,0,0,1,14.7,5.124c0-.148.008-.294.018-.438A18.215,18.215,0,0,0,6.57,10.542a6.15,6.15,0,0,1,2.435,1.2M20.867,0a5.131,5.131,0,1,0,5.124,5.137A5.13,5.13,0,0,0,20.867,0m-15.73,11.4a5.131,5.131,0,1,0,5.124,5.137,5.13,5.13,0,0,0-5.124-5.137M10.815,29.88a5.131,5.131,0,1,0,5.124,5.137,5.132,5.132,0,0,0-5.124-5.137M36.568,11.446a5.131,5.131,0,1,0,5.124,5.137,5.13,5.13,0,0,0-5.124-5.137m-5.882,18.46a5.131,5.131,0,1,0,5.124,5.137,5.131,5.131,0,0,0-5.124-5.137" transform="translate(0 -0.001)" fill="#00805a"/>
</svg>
