<svg id="teststep" xmlns="http://www.w3.org/2000/svg" width="19.454" height="20" viewBox="0 0 19.454 20">
  <g id="TBU_Icon_Settings_24px" transform="translate(0)">
    <path id="Pfad_5" data-name="Pfad 5" d="M19,13V11l2.54-1.63a.5.5,0,0,0,.12-.64l-2-3.46a.5.5,0,0,0-.61-.22l-2.49,1A6.78,6.78,0,0,0,15,5l-.51-2.58A.488.488,0,0,0,14,2H10a.488.488,0,0,0-.49.42L9,5A7.115,7.115,0,0,0,7.44,6.05l-2.49-1a.488.488,0,0,0-.61.22l-2,3.46a.493.493,0,0,0,.12.64L5,11v2L2.46,14.63a.5.5,0,0,0-.12.64l2,3.46a.5.5,0,0,0,.61.22l2.49-1A6.78,6.78,0,0,0,9,19l.51,2.58A.488.488,0,0,0,10,22h4a.488.488,0,0,0,.49-.42L15,19a7.115,7.115,0,0,0,1.56-1.05l2.49,1a.488.488,0,0,0,.61-.22l2-3.46a.5.5,0,0,0-.12-.64Zm-7,2a2.8,2.8,0,0,1-3-3,2.8,2.8,0,0,1,3-3,2.8,2.8,0,0,1,3,3A2.8,2.8,0,0,1,12,15Z" transform="translate(-2.271 -2)" fill="grey"/>
  </g>
</svg>