<svg id="testcase" xmlns="http://www.w3.org/2000/svg" xmlns:xlink="http://www.w3.org/1999/xlink" width="22" height="24" viewBox="0 0 22 24">
    <defs>
      <clipPath id="clip-path-tc">
        <rect id="Rechteck_199" data-name="Rechteck 199" width="22" height="24"/>
      </clipPath>
    </defs>
    <g id="Gruppe_110" data-name="Gruppe 110" clip-path="url(#clip-path-tc)">
      <path id="Pfad_182" data-name="Pfad 182" d="M2.444,24a2.381,2.381,0,0,1-1.727-.7A2.3,2.3,0,0,1,0,21.6V4.8A2.3,2.3,0,0,1,.717,3.1a2.381,2.381,0,0,1,1.727-.7H7.578A3.611,3.611,0,0,1,8.908.66a3.647,3.647,0,0,1,4.185,0,3.611,3.611,0,0,1,1.33,1.74h5.133a2.381,2.381,0,0,1,1.727.7A2.3,2.3,0,0,1,22,4.8V21.6a2.3,2.3,0,0,1-.717,1.7,2.381,2.381,0,0,1-1.727.7Zm3.667-4.8h6.111a1.191,1.191,0,0,0,.87-.346,1.213,1.213,0,0,0,0-1.709,1.191,1.191,0,0,0-.87-.346H6.111a1.191,1.191,0,0,0-.87.346,1.213,1.213,0,0,0,0,1.709,1.191,1.191,0,0,0,.87.346m0-4.8h9.778a1.191,1.191,0,0,0,.87-.346,1.213,1.213,0,0,0,0-1.709,1.191,1.191,0,0,0-.87-.346H6.111a1.191,1.191,0,0,0-.87.346,1.213,1.213,0,0,0,0,1.709,1.191,1.191,0,0,0,.87.346m0-4.8h9.778a1.191,1.191,0,0,0,.87-.346,1.213,1.213,0,0,0,0-1.709,1.191,1.191,0,0,0-.87-.346H6.111a1.191,1.191,0,0,0-.87.346,1.213,1.213,0,0,0,0,1.709,1.191,1.191,0,0,0,.87.346M11,3.9a.9.9,0,0,0,.658-.254A.87.87,0,0,0,11.917,3a.87.87,0,0,0-.259-.646.977.977,0,0,0-1.315,0A.87.87,0,0,0,10.083,3a.87.87,0,0,0,.259.646A.9.9,0,0,0,11,3.9" transform="translate(0)" fill="#e8eaed"/>
    </g>
</svg>