<?xml version="1.0" encoding="UTF-8" standalone="no"?><!DOCTYPE svg PUBLIC "-//W3C//DTD SVG 1.1//EN" "http://www.w3.org/Graphics/SVG/1.1/DTD/svg11.dtd"><svg width="100%" height="100%" viewBox="0 0 417 417" version="1.1" xmlns="http://www.w3.org/2000/svg" xmlns:xlink="http://www.w3.org/1999/xlink" xml:space="preserve" xmlns:serif="http://www.serif.com/" style="fill-rule:evenodd;clip-rule:evenodd;stroke-linejoin:round;stroke-miterlimit:2;"><path d="M84.062,103.431c-9.668,0 -17.482,7.831 -17.482,17.482l0,201.988c0,9.649 7.814,17.482 17.482,17.482c1.51,-0 2.975,-0.192 4.371,-0.551c1.397,0.359 2.86,0.551 4.371,0.551l43.704,-0l-0,11.641c-0,9.651 7.814,17.484 17.482,17.484l58.251,-0c9.668,-0 17.481,-7.833 17.481,-17.484l-0,-58.266c-0,-9.651 -7.813,-17.482 -17.481,-17.482l-58.251,-0c-9.668,-0 -17.482,7.831 -17.482,17.482l-0,11.661l-34.964,-0l0,-93.251l34.964,0l-0,11.643c-0,9.65 7.814,17.484 17.482,17.484l58.251,-0c9.668,-0 17.481,-7.816 17.481,-17.484l-0,-58.267c-0,-9.65 -7.813,-17.482 -17.481,-17.482l-58.251,0c-9.668,0 -17.482,7.832 -17.482,17.482l-0,11.661l-34.964,0l0,-56.292c0,-9.651 -7.815,-17.482 -17.482,-17.482Zm180.869,73.774c-9.668,0 -17.481,7.832 -17.481,17.482c-0,9.65 7.813,17.481 17.481,17.481l67.672,0c9.667,0 17.484,-7.831 17.484,-17.481c-0,-9.65 -7.817,-17.482 -17.484,-17.482l-67.672,0Zm-102.014,-3.038l40.833,-0l0,40.833l-40.833,-0l-0,-40.833Zm102.014,131.252c-9.668,-0 -17.481,7.831 -17.481,17.482c-0,9.649 7.813,17.482 17.481,17.482l67.672,-0c9.667,-0 17.484,-7.833 17.484,-17.482c-0,-9.651 -7.817,-17.482 -17.484,-17.482l-67.672,-0Zm-102.014,-2.513l40.833,0l0,40.844l-40.833,-0l-0,-40.844Z" style="fill-rule:nonzero;" fill="#e8eaed"/><path d="M36.508,48.878l-0,58.266c-0,9.651 7.814,17.484 17.482,17.484l58.251,-0c9.668,-0 17.481,-7.816 17.481,-17.484l-0,-58.266c-0,-9.651 -7.813,-17.482 -17.481,-17.482l-58.251,-0c-9.668,-0 -17.482,7.831 -17.482,17.482Zm25.905,7.494l40.678,-0l-0,40.711l-40.678,0l0,-40.711Z" style="fill-rule:nonzero;" fill="#e8eaed"/></svg>